<svg width="31" height="31" viewBox="0 0 31 31" fill="none" xmlns="http://www.w3.org/2000/svg">
<g id="Group 2451">
<circle id="Ellipse 82" opacity="0.3" cx="15.7169" cy="15.3749" r="15.0787" fill="#999999"/>
<path id="6" d="M17.5936 12.0888C17.4865 11.5932 17.299 11.2249 17.0311 10.9839C16.7633 10.7294 16.3816 10.6022 15.886 10.6022C15.1226 10.6022 14.5735 10.937 14.2387 11.6066C13.9039 12.2629 13.7298 13.3075 13.7164 14.7406C14.011 14.2718 14.4329 13.9035 14.982 13.6357C15.5445 13.3678 16.1606 13.2339 16.8302 13.2339C18.1427 13.2339 19.1941 13.6491 19.9843 14.4794C20.7878 15.3098 21.1896 16.4683 21.1896 17.9549C21.1896 18.9326 20.9887 19.7897 20.5869 20.5263C20.1985 21.2629 19.6226 21.8388 18.8592 22.254C18.1092 22.6692 17.2186 22.8768 16.1874 22.8768C14.1248 22.8768 12.6918 22.2339 11.8882 20.9482C11.0846 19.6491 10.6829 17.7875 10.6829 15.3634C10.6829 12.8187 11.1047 10.9303 11.9485 9.69815C12.8056 8.45261 14.1717 7.82983 16.0467 7.82983C17.0512 7.82983 17.895 8.03073 18.578 8.43252C19.2744 8.82091 19.7968 9.33654 20.145 9.9794C20.5066 10.6223 20.7209 11.3254 20.7878 12.0888H17.5936ZM16.0066 15.946C15.4307 15.946 14.9485 16.1201 14.5601 16.4683C14.1851 16.8031 13.9976 17.2852 13.9976 17.9147C13.9976 18.5576 14.1717 19.0598 14.5199 19.4214C14.8815 19.783 15.3905 19.9638 16.0467 19.9638C16.636 19.9638 17.0981 19.7897 17.4329 19.4415C17.7811 19.0799 17.9552 18.5911 17.9552 17.975C17.9552 17.3455 17.7878 16.85 17.453 16.4884C17.1182 16.1268 16.636 15.946 16.0066 15.946Z" fill="#999999"/>
</g>
</svg>
