<svg width="34" height="36" viewBox="0 0 34 36" fill="none" xmlns="http://www.w3.org/2000/svg">
<g id="Group 2475">
<g id="Group 2460">
<circle id="Ellipse 79" opacity="0.3" cx="15.1419" cy="20.2384" r="14.9347" fill="#3DCD7F"/>
<path id="C" d="M8.05127 20.4138C8.05127 19.0343 8.34973 17.8072 8.94665 16.7328C9.54358 15.6451 10.3726 14.8027 11.4338 14.2058C12.5083 13.5956 13.722 13.2905 15.0751 13.2905C16.7332 13.2905 18.1525 13.7283 19.3331 14.6038C20.5137 15.4792 21.303 16.6731 21.7009 18.1853H17.9602C17.6816 17.6016 17.2837 17.1573 16.7663 16.8522C16.2623 16.5471 15.6853 16.3945 15.0353 16.3945C13.9873 16.3945 13.1384 16.7593 12.4884 17.4889C11.8384 18.2185 11.5134 19.1934 11.5134 20.4138C11.5134 21.6342 11.8384 22.6092 12.4884 23.3387C13.1384 24.0683 13.9873 24.4331 15.0353 24.4331C15.6853 24.4331 16.2623 24.2805 16.7663 23.9755C17.2837 23.6704 17.6816 23.226 17.9602 22.6423H21.7009C21.303 24.1545 20.5137 25.3484 19.3331 26.2239C18.1525 27.0861 16.7332 27.5172 15.0751 27.5172C13.722 27.5172 12.5083 27.2187 11.4338 26.6218C10.3726 26.0116 9.54358 25.1693 8.94665 24.0948C8.34973 23.0204 8.05127 21.7934 8.05127 20.4138Z" fill="#3DCD7F"/>
</g>
<g id="Group 2440">
<circle id="Ellipse 76" cx="26.0355" cy="8.1737" r="7.46154" fill="#3DCD7F"/>
<path id="Vector" d="M30.0533 6.45142L25.3181 11.0431L23.1658 8.95599" stroke="white" stroke-width="2" stroke-linecap="round" stroke-linejoin="round"/>
</g>
</g>
</svg>
