<svg width="34" height="36" viewBox="0 0 34 36" fill="none" xmlns="http://www.w3.org/2000/svg">
<g id="Group 2472">
<g id="Group 2442">
<circle id="Ellipse 76" cx="26.2723" cy="8.1737" r="7.46154" fill="#F64F77"/>
<g id="Group 2413">
<path id="Vector" d="M28.4039 6.04199L24.1401 10.3057" stroke="white" stroke-width="2" stroke-linecap="round" stroke-linejoin="round"/>
<path id="Vector_2" d="M28.4038 10.3057L24.1401 6.04199" stroke="white" stroke-width="2" stroke-linecap="round" stroke-linejoin="round"/>
</g>
</g>
<g id="Group 2463">
<circle id="Ellipse 82" opacity="0.3" cx="15.3785" cy="20.2384" r="14.9347" fill="#DA3E16"/>
<path id="B" d="M19.1359 20.0955C19.945 20.2679 20.595 20.6725 21.0858 21.3092C21.5766 21.9326 21.822 22.649 21.822 23.4581C21.822 24.6254 21.4108 25.554 20.5884 26.2438C19.7792 26.9203 18.6451 27.2585 17.1859 27.2585H10.6794V13.2905H16.967C18.3864 13.2905 19.494 13.6155 20.2899 14.2655C21.0991 14.9155 21.5037 15.7976 21.5037 16.9119C21.5037 17.7343 21.2848 18.4174 20.847 18.9613C20.4226 19.5052 19.8522 19.8832 19.1359 20.0955ZM14.0819 18.9414H16.3104C16.8675 18.9414 17.292 18.822 17.5839 18.5832C17.8889 18.3312 18.0415 17.9664 18.0415 17.4889C18.0415 17.0113 17.8889 16.6466 17.5839 16.3945C17.292 16.1425 16.8675 16.0165 16.3104 16.0165H14.0819V18.9414ZM16.589 24.5127C17.1594 24.5127 17.5971 24.3867 17.9022 24.1346C18.2206 23.8693 18.3798 23.4913 18.3798 23.0005C18.3798 22.5097 18.2139 22.125 17.8823 21.8464C17.564 21.5679 17.1196 21.4286 16.5492 21.4286H14.0819V24.5127H16.589Z" fill="#DA3E16"/>
</g>
</g>
</svg>
