<svg width="34" height="36" viewBox="0 0 34 36" fill="none" xmlns="http://www.w3.org/2000/svg">
<g id="Group 2471">
<g id="Group 2443">
<circle id="Ellipse 76" cx="26.3019" cy="8.1737" r="7.46154" fill="#F64F77"/>
<g id="Group 2413">
<path id="Vector" d="M28.4337 6.04199L24.1699 10.3057" stroke="white" stroke-width="2" stroke-linecap="round" stroke-linejoin="round"/>
<path id="Vector_2" d="M28.4338 10.3057L24.1701 6.04199" stroke="white" stroke-width="2" stroke-linecap="round" stroke-linejoin="round"/>
</g>
</g>
<g id="Group 2464">
<circle id="Ellipse 83" opacity="0.3" cx="15.408" cy="20.2384" r="14.9347" fill="#DA3E16"/>
<path id="C" d="M8.9873 20.4138C8.9873 19.0343 9.28577 17.8072 9.88269 16.7328C10.4796 15.6451 11.3087 14.8027 12.3699 14.2058C13.4443 13.5956 14.6581 13.2905 16.0111 13.2905C17.6692 13.2905 19.0886 13.7283 20.2692 14.6038C21.4497 15.4792 22.239 16.6731 22.637 18.1853H18.8962C18.6177 17.6016 18.2197 17.1573 17.7024 16.8522C17.1983 16.5471 16.6213 16.3945 15.9713 16.3945C14.9234 16.3945 14.0744 16.7593 13.4244 17.4889C12.7745 18.2185 12.4495 19.1934 12.4495 20.4138C12.4495 21.6342 12.7745 22.6092 13.4244 23.3387C14.0744 24.0683 14.9234 24.4331 15.9713 24.4331C16.6213 24.4331 17.1983 24.2805 17.7024 23.9755C18.2197 23.6704 18.6177 23.226 18.8962 22.6423H22.637C22.239 24.1545 21.4497 25.3484 20.2692 26.2239C19.0886 27.0861 17.6692 27.5172 16.0111 27.5172C14.6581 27.5172 13.4443 27.2187 12.3699 26.6218C11.3087 26.0116 10.4796 25.1693 9.88269 24.0948C9.28577 23.0204 8.9873 21.7934 8.9873 20.4138Z" fill="#DA3E16"/>
</g>
</g>
</svg>
