<svg width="31" height="31" viewBox="0 0 31 31" fill="none" xmlns="http://www.w3.org/2000/svg">
<g id="Group 2453">
<circle id="Ellipse 84" opacity="0.3" cx="15.819" cy="15.3749" r="15.0787" fill="#999999"/>
<path id="8" d="M13.0148 14.9214C11.7559 14.2517 11.1264 13.2004 11.1264 11.7674C11.1264 11.0441 11.3139 10.3879 11.6889 9.7986C12.0639 9.19591 12.6331 8.72046 13.3965 8.37225C14.1599 8.01064 15.0974 7.82983 16.2091 7.82983C17.3207 7.82983 18.2515 8.01064 19.0015 8.37225C19.7649 8.72046 20.3341 9.19591 20.7091 9.7986C21.0841 10.3879 21.2716 11.0441 21.2716 11.7674C21.2716 12.4906 21.0975 13.12 20.7493 13.6558C20.4144 14.1915 19.9591 14.6134 19.3832 14.9214C20.1064 15.2696 20.6622 15.7518 21.0506 16.3678C21.439 16.9705 21.6332 17.6803 21.6332 18.4973C21.6332 19.4482 21.3921 20.2719 20.91 20.9683C20.4278 21.6513 19.7716 22.1737 18.9412 22.5353C18.1242 22.8969 17.2135 23.0777 16.2091 23.0777C15.2046 23.0777 14.2872 22.8969 13.4568 22.5353C12.6398 22.1737 11.9903 21.6513 11.5081 20.9683C11.026 20.2719 10.7849 19.4482 10.7849 18.4973C10.7849 17.6669 10.9791 16.9504 11.3675 16.3477C11.7559 15.7317 12.305 15.2562 13.0148 14.9214ZM17.9367 12.2897C17.9367 11.7406 17.776 11.3187 17.4546 11.024C17.1466 10.716 16.7314 10.562 16.2091 10.562C15.6867 10.562 15.2648 10.716 14.9434 11.024C14.6354 11.3321 14.4814 11.7607 14.4814 12.3098C14.4814 12.8321 14.6421 13.2473 14.9635 13.5553C15.2849 13.85 15.7001 13.9973 16.2091 13.9973C16.718 13.9973 17.1332 13.8433 17.4546 13.5352C17.776 13.2272 17.9367 12.812 17.9367 12.2897ZM16.2091 16.408C15.5796 16.408 15.0707 16.5821 14.6823 16.9303C14.2939 17.2652 14.0997 17.7339 14.0997 18.3366C14.0997 18.8991 14.2872 19.3612 14.6622 19.7228C15.0506 20.0844 15.5662 20.2652 16.2091 20.2652C16.8519 20.2652 17.3541 20.0844 17.7158 19.7228C18.0908 19.3612 18.2783 18.8991 18.2783 18.3366C18.2783 17.7473 18.0841 17.2786 17.6957 16.9303C17.3207 16.5821 16.8251 16.408 16.2091 16.408Z" fill="#999999"/>
</g>
</svg>
