<svg width="32" height="36" viewBox="0 0 32 36" fill="none" xmlns="http://www.w3.org/2000/svg">
<g id="Group 2474">
<g id="Group 2461">
<circle id="Ellipse 80" opacity="0.3" cx="15.1712" cy="20.2384" r="14.9347" fill="#3DCD7F"/>
<path id="D" d="M14.0792 13.2905C15.5516 13.2905 16.8383 13.5824 17.9393 14.166C19.0403 14.7497 19.8893 15.5721 20.4862 16.6333C21.0964 17.6812 21.4015 18.895 21.4015 20.2745C21.4015 21.6408 21.0964 22.8546 20.4862 23.9158C19.8893 24.977 19.0337 25.7994 17.9194 26.383C16.8184 26.9667 15.5384 27.2585 14.0792 27.2585H8.84619V13.2905H14.0792ZM13.8603 24.3137C15.147 24.3137 16.1486 23.9622 16.8649 23.2591C17.5812 22.5561 17.9393 21.5612 17.9393 20.2745C17.9393 18.9878 17.5812 17.9863 16.8649 17.27C16.1486 16.5537 15.147 16.1956 13.8603 16.1956H12.2487V24.3137H13.8603Z" fill="#3DCD7F"/>
</g>
<g id="Group 2441">
<circle id="Ellipse 76" cx="23.7692" cy="8.1737" r="7.46154" fill="#3DCD7F"/>
<path id="Vector" d="M27.787 6.45142L23.0518 11.0431L20.8994 8.95599" stroke="white" stroke-width="2" stroke-linecap="round" stroke-linejoin="round"/>
</g>
</g>
</svg>
