<svg width="34" height="36" viewBox="0 0 34 36" fill="none" xmlns="http://www.w3.org/2000/svg">
<g id="Group 2476">
<g id="Group 2459">
<circle id="Ellipse 78" opacity="0.3" cx="14.9642" cy="20.2384" r="14.9347" fill="#3DCD7F"/>
<path id="B" d="M17.9564 20.0955C18.7656 20.2679 19.4156 20.6725 19.9064 21.3092C20.3972 21.9326 20.6426 22.649 20.6426 23.4581C20.6426 24.6254 20.2314 25.554 19.4089 26.2438C18.5998 26.9203 17.4656 27.2585 16.0065 27.2585H9.5V13.2905H15.7876C17.2069 13.2905 18.3146 13.6155 19.1105 14.2655C19.9196 14.9155 20.3242 15.7976 20.3242 16.9119C20.3242 17.7343 20.1053 18.4174 19.6676 18.9613C19.2431 19.5052 18.6727 19.8832 17.9564 20.0955ZM12.9025 18.9414H15.131C15.6881 18.9414 16.1126 18.822 16.4044 18.5832C16.7095 18.3312 16.8621 17.9664 16.8621 17.4889C16.8621 17.0113 16.7095 16.6466 16.4044 16.3945C16.1126 16.1425 15.6881 16.0165 15.131 16.0165H12.9025V18.9414ZM15.4095 24.5127C15.9799 24.5127 16.4177 24.3867 16.7228 24.1346C17.0411 23.8693 17.2003 23.4913 17.2003 23.0005C17.2003 22.5097 17.0345 22.125 16.7029 21.8464C16.3845 21.5679 15.9401 21.4286 15.3697 21.4286H12.9025V24.5127H15.4095Z" fill="#3DCD7F"/>
</g>
<g id="Group 2439">
<circle id="Ellipse 76" cx="25.858" cy="8.1737" r="7.46154" fill="#3DCD7F"/>
<path id="Vector" d="M29.8759 6.45142L25.1406 11.0431L22.9883 8.95599" stroke="white" stroke-width="2" stroke-linecap="round" stroke-linejoin="round"/>
</g>
</g>
</svg>
