<svg width="32" height="31" viewBox="0 0 32 31" fill="none" xmlns="http://www.w3.org/2000/svg">
<g id="Group 2448">
<g id="Group 2415">
<circle id="Ellipse 78" opacity="0.3" cx="16.0021" cy="15.3749" r="15.0787" fill="#999999"/>
<path id="2" d="M11.0082 20.0643C11.4636 19.7027 11.6711 19.5353 11.631 19.562C12.9435 18.4772 13.9747 17.5866 14.7247 16.8902C15.4881 16.1937 16.131 15.4638 16.6533 14.7004C17.1756 13.937 17.4368 13.1937 17.4368 12.4705C17.4368 11.9214 17.3096 11.4928 17.0551 11.1848C16.8006 10.8767 16.4189 10.7227 15.91 10.7227C15.4011 10.7227 14.9993 10.9169 14.7046 11.3053C14.4234 11.6803 14.2828 12.216 14.2828 12.9125H10.968C10.9948 11.7741 11.2359 10.8232 11.6912 10.0598C12.16 9.29636 12.7694 8.73386 13.5194 8.37225C14.2828 8.01064 15.1265 7.82983 16.0506 7.82983C17.6444 7.82983 18.8431 8.23832 19.6466 9.05529C20.4636 9.87226 20.8721 10.937 20.8721 12.2495C20.8721 13.6825 20.3833 15.0151 19.4056 16.2473C18.4279 17.4661 17.1823 18.658 15.6689 19.8232H21.0931V22.6156H11.0082V20.0643Z" fill="#999999"/>
</g>
</g>
</svg>
