<svg width="31" height="31" viewBox="0 0 31 31" fill="none" xmlns="http://www.w3.org/2000/svg">
<g id="Group 2456">
<circle id="Ellipse 81" opacity="0.3" cx="15.2828" cy="15.3749" r="15.0787" fill="#999999"/>
<path id="5" d="M19.7915 10.8432H13.5236V13.6156C13.7915 13.3209 14.1665 13.0799 14.6486 12.8924C15.1307 12.7049 15.6531 12.6111 16.2156 12.6111C17.22 12.6111 18.0504 12.8388 18.7067 13.2942C19.3763 13.7495 19.8651 14.3388 20.1732 15.062C20.4812 15.7852 20.6352 16.5687 20.6352 17.4125C20.6352 18.9795 20.1933 20.225 19.3093 21.1491C18.4254 22.0598 17.1799 22.5152 15.5727 22.5152C14.5013 22.5152 13.5705 22.3344 12.7803 21.9728C11.9901 21.5978 11.3807 21.0821 10.9522 20.4259C10.5236 19.7696 10.2892 19.0129 10.249 18.1558H13.604C13.6843 18.571 13.8785 18.9192 14.1865 19.2004C14.4946 19.4683 14.9165 19.6022 15.4522 19.6022C16.0816 19.6022 16.5504 19.4013 16.8584 18.9995C17.1665 18.5978 17.3205 18.062 17.3205 17.3924C17.3205 16.7361 17.1598 16.2339 16.8383 15.8857C16.5169 15.5375 16.0482 15.3634 15.4321 15.3634C14.9767 15.3634 14.6017 15.4772 14.3071 15.7049C14.0124 15.9192 13.8182 16.2071 13.7245 16.5687H10.4097V7.82983H19.7915V10.8432Z" fill="#999999"/>
</g>
</svg>
