<svg width="34" height="36" viewBox="0 0 34 36" fill="none" xmlns="http://www.w3.org/2000/svg">
<g id="Group 2470">
<g id="Group 2444">
<circle id="Ellipse 76" cx="26.3314" cy="8.1737" r="7.46154" fill="#F64F77"/>
<g id="Group 2413">
<path id="Vector" d="M28.4634 6.04199L24.1997 10.3057" stroke="white" stroke-width="2" stroke-linecap="round" stroke-linejoin="round"/>
<path id="Vector_2" d="M28.4636 10.3057L24.1999 6.04199" stroke="white" stroke-width="2" stroke-linecap="round" stroke-linejoin="round"/>
</g>
</g>
<g id="Group 2465">
<circle id="Ellipse 84" opacity="0.3" cx="15.4376" cy="20.2384" r="14.9347" fill="#DA3E16"/>
<path id="D" d="M15.015 13.2905C16.4874 13.2905 17.7741 13.5824 18.8751 14.166C19.9761 14.7497 20.8251 15.5721 21.422 16.6333C22.0322 17.6812 22.3373 18.895 22.3373 20.2745C22.3373 21.6408 22.0322 22.8546 21.422 23.9158C20.8251 24.977 19.9695 25.7994 18.8552 26.383C17.7542 26.9667 16.4742 27.2585 15.015 27.2585H9.78198V13.2905H15.015ZM14.7961 24.3137C16.0828 24.3137 17.0843 23.9622 17.8007 23.2591C18.517 22.5561 18.8751 21.5612 18.8751 20.2745C18.8751 18.9878 18.517 17.9863 17.8007 17.27C17.0843 16.5537 16.0828 16.1956 14.7961 16.1956H13.1844V24.3137H14.7961Z" fill="#DA3E16"/>
</g>
</g>
</svg>
