<svg width="31" height="31" viewBox="0 0 31 31" fill="none" xmlns="http://www.w3.org/2000/svg">
<g id="Group 2449">
<circle id="Ellipse 79" opacity="0.3" cx="15.4362" cy="15.3749" r="15.0787" fill="#999999"/>
<path id="3" d="M10.5829 12.3098C10.6365 10.8767 11.1052 9.77181 11.9892 8.99502C12.8731 8.21823 14.0718 7.82983 15.5852 7.82983C16.5896 7.82983 17.4468 8.00394 18.1566 8.35216C18.8798 8.70037 19.4222 9.17582 19.7838 9.77851C20.1589 10.3812 20.3464 11.0575 20.3464 11.8075C20.3464 12.6915 20.1254 13.4147 19.6834 13.9772C19.2414 14.5263 18.7258 14.9013 18.1365 15.1022V15.1826C18.8999 15.437 19.5026 15.8589 19.9446 16.4482C20.3865 17.0375 20.6075 17.7942 20.6075 18.7183C20.6075 19.5486 20.4133 20.2853 20.0249 20.9281C19.6499 21.5576 19.0941 22.0531 18.3575 22.4147C17.6343 22.7763 16.7704 22.9572 15.766 22.9572C14.1588 22.9572 12.8731 22.5621 11.9088 21.7719C10.9579 20.9817 10.4557 19.7897 10.4021 18.196H13.7369C13.7503 18.7853 13.9177 19.254 14.2392 19.6022C14.5606 19.937 15.0294 20.1045 15.6454 20.1045C16.1678 20.1045 16.5695 19.9571 16.8508 19.6625C17.1454 19.3545 17.2928 18.9527 17.2928 18.4571C17.2928 17.8143 17.0852 17.3522 16.67 17.071C16.2682 16.7763 15.6186 16.629 14.7213 16.629H14.0785V13.8366H14.7213C15.4044 13.8366 15.9535 13.7227 16.3687 13.495C16.7972 13.254 17.0115 12.8321 17.0115 12.2294C17.0115 11.7473 16.8776 11.3723 16.6097 11.1044C16.3419 10.8365 15.9736 10.7026 15.5048 10.7026C14.9959 10.7026 14.6142 10.8566 14.3597 11.1647C14.1186 11.4727 13.978 11.8544 13.9378 12.3098H10.5829Z" fill="#999999"/>
</g>
</svg>
