<svg width="31" height="31" viewBox="0 0 31 31" fill="none" xmlns="http://www.w3.org/2000/svg">
<g id="Group 2455">
<circle id="Ellipse 86" opacity="0.3" cx="15.9213" cy="15.3749" r="15.0787" fill="#999999"/>
<g id="10">
<path id="Vector" d="M15.0352 15.2629C15.0352 12.9593 15.4771 11.1446 16.3611 9.81869C17.2584 8.49278 18.6981 7.82983 20.6803 7.82983C22.6624 7.82983 24.0955 8.49278 24.9794 9.81869C25.8767 11.1446 26.3254 12.9593 26.3254 15.2629C26.3254 17.5933 25.8767 19.4214 24.9794 20.7473C24.0955 22.0732 22.6624 22.7362 20.6803 22.7362C18.6981 22.7362 17.2584 22.0732 16.3611 20.7473C15.4771 19.4214 15.0352 17.5933 15.0352 15.2629ZM22.9504 15.2629C22.9504 13.9102 22.8031 12.8723 22.5084 12.1491C22.2138 11.4124 21.6044 11.0441 20.6803 11.0441C19.7562 11.0441 19.1468 11.4124 18.8521 12.1491C18.5575 12.8723 18.4102 13.9102 18.4102 15.2629C18.4102 16.1736 18.4637 16.9303 18.5709 17.533C18.678 18.1223 18.8923 18.6045 19.2138 18.9795C19.5486 19.3411 20.0374 19.5219 20.6803 19.5219C21.3231 19.5219 21.8053 19.3411 22.1267 18.9795C22.4615 18.6045 22.6825 18.1223 22.7897 17.533C22.8968 16.9303 22.9504 16.1736 22.9504 15.2629Z" fill="#999999"/>
<path id="Vector_2" d="M7.12036 11.3253V8.1311H12.6851V22.7964H9.10921V11.3253H7.12036Z" fill="#999999"/>
</g>
</g>
</svg>
