<svg width="32" height="31" viewBox="0 0 32 31" fill="none" xmlns="http://www.w3.org/2000/svg">
<g id="Group 2454">
<circle id="Ellipse 85" opacity="0.3" cx="15.9979" cy="15.3749" r="15.0787" fill="#999999"/>
<path id="9" d="M14.5197 18.5375C14.7206 19.5955 15.3367 20.1245 16.3679 20.1245C17.0777 20.1245 17.58 19.8098 17.8746 19.1803C18.1693 18.5509 18.3166 17.5263 18.3166 16.1067C18.0219 16.5218 17.6202 16.8433 17.1112 17.071C16.6023 17.2986 16.0331 17.4125 15.4036 17.4125C14.5465 17.4125 13.7831 17.2384 13.1134 16.8902C12.4438 16.5285 11.9148 15.9995 11.5264 15.3031C11.1514 14.5933 10.9639 13.7361 10.9639 12.7316C10.9639 11.7406 11.1648 10.8767 11.5665 10.1401C11.9817 9.4035 12.5643 8.8343 13.3143 8.43252C14.0777 8.03073 14.9751 7.82983 16.0063 7.82983C17.9885 7.82983 19.3746 8.44591 20.1648 9.67806C20.955 10.9102 21.3501 12.725 21.3501 15.1223C21.3501 16.8634 21.1894 18.3031 20.8679 19.4415C20.5599 20.5665 20.0309 21.4237 19.2809 22.0129C18.5443 22.6022 17.5331 22.8969 16.2474 22.8969C15.2295 22.8969 14.359 22.696 13.6358 22.2942C12.9259 21.8924 12.3768 21.3634 11.9884 20.7071C11.6134 20.0509 11.3991 19.3277 11.3456 18.5375H14.5197ZM16.1871 14.7004C16.7496 14.7004 17.1983 14.533 17.5331 14.1982C17.8679 13.85 18.0353 13.3812 18.0353 12.7919C18.0353 12.1491 17.8612 11.6535 17.513 11.3053C17.1648 10.9571 16.696 10.783 16.1068 10.783C15.5175 10.783 15.0487 10.9638 14.7005 11.3254C14.3657 11.6736 14.1983 12.1558 14.1983 12.7718C14.1983 13.3477 14.3657 13.8165 14.7005 14.1781C15.0487 14.5263 15.5443 14.7004 16.1871 14.7004Z" fill="#999999"/>
</g>
</svg>
