<svg width="112" height="118" viewBox="0 0 112 118" fill="none" xmlns="http://www.w3.org/2000/svg">
<circle opacity="0.2" cx="56.1463" cy="61.2001" r="35.8756" fill="#3DCD7F"/>
<path opacity="0.6" d="M39.5535 15.9206C28.912 19.8204 19.984 27.3438 14.3366 37.1702C8.68916 46.9965 6.68313 58.4981 8.6706 69.6561C10.6581 80.8141 16.512 90.9156 25.205 98.1877C33.898 105.46 44.8746 109.438 56.2082 109.423C67.5419 109.409 78.5083 105.403 87.1829 98.1092C95.8575 90.8151 101.686 80.6988 103.645 69.5358C105.604 58.3727 103.569 46.8763 97.8967 37.0643C92.2244 27.2522 83.2774 19.7515 72.626 15.8787" stroke="#FFCBF5" stroke-width="5" stroke-linecap="round" stroke-linejoin="round"/>
<path d="M72.5687 15.7636C83.2598 19.675 92.2225 27.2425 97.8704 37.1268C103.518 47.0111 105.487 58.5748 103.429 69.7713C101.371 80.9678 95.4174 91.0751 86.6232 98.3043C77.8291 105.534 66.7609 109.418 55.3777 109.272C43.9945 109.125 33.0303 104.955 24.4256 97.5016C15.8209 90.0479 10.1306 79.7903 8.36183 68.5444C6.59303 57.2986 8.8598 45.7895 14.7609 36.0542C20.6621 26.319 29.8171 18.9853 40.6056 15.3511" stroke="#3DCD7F" stroke-width="5" stroke-linecap="round" stroke-linejoin="round"/>
<circle cx="56.1464" cy="11.9585" r="11.9585" fill="#F7F7F7"/>
<path fill-rule="evenodd" clip-rule="evenodd" d="M56.1461 16.1018L52.3664 18.1783C51.914 18.4269 51.3545 18.2451 51.1167 17.7724C51.022 17.5841 50.9893 17.3685 51.0237 17.1589L51.7455 12.7607L48.6877 9.64592C48.3217 9.27312 48.3143 8.66087 48.671 8.27842C48.8131 8.12612 48.9992 8.02701 49.2006 7.99643L53.4264 7.35474L55.3162 3.35316C55.5424 2.87422 56.0973 2.67758 56.5556 2.91395C56.7381 3.00807 56.8858 3.16244 56.9759 3.35316L58.8658 7.35474L63.0916 7.99643C63.5973 8.07323 63.9478 8.56395 63.8743 9.09249C63.845 9.30296 63.7502 9.49747 63.6044 9.64592L60.5466 12.7607L61.2685 17.1589C61.3549 17.6853 61.0165 18.1852 60.5128 18.2755C60.3122 18.3115 60.1059 18.2773 59.9258 18.1783L56.1461 16.1018Z" fill="#FFC680"/>
</svg>
