<svg width="21" height="20" viewBox="0 0 21 20" fill="none" xmlns="http://www.w3.org/2000/svg">
<path fill-rule="evenodd" clip-rule="evenodd" d="M10.3603 17.1726L5.29961 19.8562C4.69392 20.1774 3.94476 19.9425 3.62633 19.3315C3.49953 19.0883 3.45578 18.8096 3.50184 18.5387L4.46834 12.8548L0.374173 8.82936C-0.115843 8.34758 -0.125869 7.55634 0.351778 7.06208C0.54198 6.86526 0.791201 6.73717 1.06086 6.69765L6.71886 5.86837L9.2492 0.69694C9.55204 0.0779897 10.295 -0.176136 10.9086 0.129334C11.153 0.250974 11.3508 0.450471 11.4714 0.69694L14.0017 5.86837L19.6597 6.69765C20.3369 6.7969 20.8061 7.43109 20.7077 8.11414C20.6685 8.38613 20.5415 8.63751 20.3464 8.82936L16.2522 12.8548L17.2187 18.5387C17.3344 19.219 16.8814 19.8651 16.207 19.9818C15.9384 20.0282 15.6621 19.9841 15.421 19.8562L10.3603 17.1726Z" fill="#FFC680"/>
</svg>
